<svg width="25" height="24" viewBox="0 0 25 24" fill="none" xmlns="http://www.w3.org/2000/svg">
<path d="M21.3975 10C21.3975 17 12.3975 23 12.3975 23C12.3975 23 3.39746 17 3.39746 10C3.39746 7.61305 4.34567 5.32387 6.0335 3.63604C7.72133 1.94821 10.0105 1 12.3975 1C14.7844 1 17.0736 1.94821 18.7614 3.63604C20.4492 5.32387 21.3975 7.61305 21.3975 10Z" stroke="white" stroke-width="2" stroke-linecap="round" stroke-linejoin="round"/>
<path d="M12.3975 13C14.0543 13 15.3975 11.6569 15.3975 10C15.3975 8.34315 14.0543 7 12.3975 7C10.7406 7 9.39746 8.34315 9.39746 10C9.39746 11.6569 10.7406 13 12.3975 13Z" stroke="white" stroke-width="2" stroke-linecap="round" stroke-linejoin="round"/>
</svg>
